<svg width="20" height="20" viewBox="0 0 20 20" fill="none" xmlns="http://www.w3.org/2000/svg">
<path d="M0 0H20V20H0V0Z" fill="#0A192F"/>
<path d="M4.29924 3.08765H6.31629L8.74053 8.53444C9.09407 9.33137 9.3971 10.1412 9.64962 10.9638H9.70644L9.79167 10.771C10.2336 9.68485 10.5429 8.95218 10.7197 8.573L13.2386 3.08765H15.2367L9.77273 14.3572C9.31818 15.2955 8.75 15.9254 8.06818 16.2467C7.57576 16.4781 6.9476 16.5938 6.18371 16.5938H5.46402L4.98106 15.032H5.94697C6.57828 15.032 7.06124 14.9356 7.39583 14.7428C7.74306 14.55 8.03662 14.1997 8.27651 13.692L8.79735 12.5834L4.29924 3.08765Z" fill="white"/>
</svg>
